<mxfile host="app.diagrams.net" agent="Mozilla/5.0 (Windows NT 10.0; Win64; x64) AppleWebKit/537.36 (KHTML, like Gecko) Chrome/138.0.0.0 Safari/537.36" version="28.0.4">
  <diagram name="Page-1" id="-jYpYQQE4FwWObwYgKz3">
    <mxGraphModel dx="1203" dy="917" grid="0" gridSize="10" guides="1" tooltips="1" connect="1" arrows="1" fold="1" page="0" pageScale="1" pageWidth="827" pageHeight="1169" math="0" shadow="0">
      <root>
        <mxCell id="0" />
        <mxCell id="1" parent="0" />
        <mxCell id="8HuhSmRQcWYRWmU0MKGT-1" value="" style="shape=umlLifeline;perimeter=lifelinePerimeter;whiteSpace=wrap;html=1;container=1;dropTarget=0;collapsible=0;recursiveResize=0;outlineConnect=0;portConstraint=eastwest;newEdgeStyle={&quot;curved&quot;:0,&quot;rounded&quot;:0};participant=umlActor;fillColor=#f5f5f5;fontColor=#333333;strokeColor=#666666;" vertex="1" parent="1">
          <mxGeometry x="525" y="239" width="20" height="912" as="geometry" />
        </mxCell>
        <mxCell id="8HuhSmRQcWYRWmU0MKGT-2" value="Admin" style="text;html=1;align=center;verticalAlign=middle;resizable=0;points=[];autosize=1;" vertex="1" parent="1">
          <mxGeometry x="505" y="203" width="60" height="30" as="geometry" />
        </mxCell>
        <mxCell id="8HuhSmRQcWYRWmU0MKGT-3" value="&amp;nbsp;Ul JS" style="shape=umlLifeline;perimeter=lifelinePerimeter;whiteSpace=wrap;html=1;container=1;dropTarget=0;collapsible=0;recursiveResize=0;outlineConnect=0;portConstraint=eastwest;newEdgeStyle={&quot;curved&quot;:0,&quot;rounded&quot;:0};fillColor=#f5f5f5;fontColor=#333333;strokeColor=#666666;" vertex="1" parent="1">
          <mxGeometry x="728" y="239" width="100" height="969" as="geometry" />
        </mxCell>
        <mxCell id="8HuhSmRQcWYRWmU0MKGT-4" value="" style="html=1;points=[[0,0,0,0,5],[0,1,0,0,-5],[1,0,0,0,5],[1,1,0,0,-5]];perimeter=orthogonalPerimeter;outlineConnect=0;targetShapes=umlLifeline;portConstraint=eastwest;newEdgeStyle={&quot;curved&quot;:0,&quot;rounded&quot;:0};" vertex="1" parent="8HuhSmRQcWYRWmU0MKGT-3">
          <mxGeometry x="45" y="112" width="10" height="829" as="geometry" />
        </mxCell>
        <mxCell id="8HuhSmRQcWYRWmU0MKGT-5" value="API Backend" style="shape=umlLifeline;perimeter=lifelinePerimeter;whiteSpace=wrap;html=1;container=1;dropTarget=0;collapsible=0;recursiveResize=0;outlineConnect=0;portConstraint=eastwest;newEdgeStyle={&quot;curved&quot;:0,&quot;rounded&quot;:0};fillColor=#f5f5f5;fontColor=#333333;strokeColor=#666666;" vertex="1" parent="1">
          <mxGeometry x="948" y="245" width="100" height="973" as="geometry" />
        </mxCell>
        <mxCell id="8HuhSmRQcWYRWmU0MKGT-6" value="" style="html=1;points=[[0,0,0,0,5],[0,1,0,0,-5],[1,0,0,0,5],[1,1,0,0,-5]];perimeter=orthogonalPerimeter;outlineConnect=0;targetShapes=umlLifeline;portConstraint=eastwest;newEdgeStyle={&quot;curved&quot;:0,&quot;rounded&quot;:0};" vertex="1" parent="8HuhSmRQcWYRWmU0MKGT-5">
          <mxGeometry x="45" y="100" width="10" height="835" as="geometry" />
        </mxCell>
        <mxCell id="8HuhSmRQcWYRWmU0MKGT-7" value="Service Employé" style="shape=umlLifeline;perimeter=lifelinePerimeter;whiteSpace=wrap;html=1;container=1;dropTarget=0;collapsible=0;recursiveResize=0;outlineConnect=0;portConstraint=eastwest;newEdgeStyle={&quot;curved&quot;:0,&quot;rounded&quot;:0};fillColor=#f5f5f5;fontColor=#333333;strokeColor=#666666;" vertex="1" parent="1">
          <mxGeometry x="1208" y="238" width="100" height="1001" as="geometry" />
        </mxCell>
        <mxCell id="8HuhSmRQcWYRWmU0MKGT-8" value="" style="html=1;points=[[0,0,0,0,5],[0,1,0,0,-5],[1,0,0,0,5],[1,1,0,0,-5]];perimeter=orthogonalPerimeter;outlineConnect=0;targetShapes=umlLifeline;portConstraint=eastwest;newEdgeStyle={&quot;curved&quot;:0,&quot;rounded&quot;:0};" vertex="1" parent="8HuhSmRQcWYRWmU0MKGT-7">
          <mxGeometry x="45" y="90" width="10" height="839" as="geometry" />
        </mxCell>
        <mxCell id="8HuhSmRQcWYRWmU0MKGT-9" style="edgeStyle=orthogonalEdgeStyle;rounded=0;orthogonalLoop=1;jettySize=auto;html=1;curved=0;" edge="1" parent="8HuhSmRQcWYRWmU0MKGT-7" source="8HuhSmRQcWYRWmU0MKGT-8" target="8HuhSmRQcWYRWmU0MKGT-8">
          <mxGeometry relative="1" as="geometry">
            <mxPoint x="69" y="354" as="sourcePoint" />
            <Array as="points">
              <mxPoint x="84" y="536" />
              <mxPoint x="84" y="566" />
            </Array>
          </mxGeometry>
        </mxCell>
        <mxCell id="8HuhSmRQcWYRWmU0MKGT-10" value="&lt;font style=&quot;font-size: 12px;&quot;&gt;&amp;nbsp;remplit le formulaire et clique sur &quot;Ajouter&quot;&lt;/font&gt;" style="html=1;verticalAlign=bottom;endArrow=block;curved=0;rounded=0;" edge="1" parent="1">
          <mxGeometry width="80" relative="1" as="geometry">
            <mxPoint x="538.0015384615385" y="475" as="sourcePoint" />
            <mxPoint x="779.04" y="475" as="targetPoint" />
            <mxPoint as="offset" />
          </mxGeometry>
        </mxCell>
        <mxCell id="8HuhSmRQcWYRWmU0MKGT-11" value="BD" style="shape=umlLifeline;perimeter=lifelinePerimeter;whiteSpace=wrap;html=1;container=1;dropTarget=0;collapsible=0;recursiveResize=0;outlineConnect=0;portConstraint=eastwest;newEdgeStyle={&quot;curved&quot;:0,&quot;rounded&quot;:0};fillColor=#f5f5f5;fontColor=#333333;strokeColor=#666666;" vertex="1" parent="1">
          <mxGeometry x="1568" y="236" width="100" height="779" as="geometry" />
        </mxCell>
        <mxCell id="8HuhSmRQcWYRWmU0MKGT-12" value="" style="html=1;points=[[0,0,0,0,5],[0,1,0,0,-5],[1,0,0,0,5],[1,1,0,0,-5]];perimeter=orthogonalPerimeter;outlineConnect=0;targetShapes=umlLifeline;portConstraint=eastwest;newEdgeStyle={&quot;curved&quot;:0,&quot;rounded&quot;:0};" vertex="1" parent="8HuhSmRQcWYRWmU0MKGT-11">
          <mxGeometry x="45" y="190" width="10" height="399" as="geometry" />
        </mxCell>
        <mxCell id="8HuhSmRQcWYRWmU0MKGT-13" value="" style="html=1;verticalAlign=bottom;endArrow=block;curved=0;rounded=0;exitX=0;exitY=0.75;exitDx=0;exitDy=0;" edge="1" parent="1" source="8HuhSmRQcWYRWmU0MKGT-14" target="8HuhSmRQcWYRWmU0MKGT-11">
          <mxGeometry width="80" relative="1" as="geometry">
            <mxPoint x="1188" y="580" as="sourcePoint" />
            <mxPoint x="1268" y="580" as="targetPoint" />
            <Array as="points">
              <mxPoint x="1268" y="580" />
            </Array>
          </mxGeometry>
        </mxCell>
        <mxCell id="8HuhSmRQcWYRWmU0MKGT-14" value="Vérifie identifiant et mail" style="text;whiteSpace=wrap;" vertex="1" parent="1">
          <mxGeometry x="1325" y="550" width="350" height="40" as="geometry" />
        </mxCell>
        <mxCell id="8HuhSmRQcWYRWmU0MKGT-15" value="alt" style="shape=umlFrame;whiteSpace=wrap;html=1;pointerEvents=0;fillColor=#ffe6cc;strokeColor=#d79b00;" vertex="1" parent="1">
          <mxGeometry x="448" y="610" width="1410" height="631" as="geometry" />
        </mxCell>
        <mxCell id="8HuhSmRQcWYRWmU0MKGT-16" style="edgeStyle=orthogonalEdgeStyle;rounded=0;orthogonalLoop=1;jettySize=auto;html=1;curved=0;" edge="1" parent="1" source="8HuhSmRQcWYRWmU0MKGT-4" target="8HuhSmRQcWYRWmU0MKGT-6">
          <mxGeometry relative="1" as="geometry">
            <Array as="points">
              <mxPoint x="888" y="490" />
              <mxPoint x="888" y="490" />
            </Array>
          </mxGeometry>
        </mxCell>
        <mxCell id="8HuhSmRQcWYRWmU0MKGT-17" value="&lt;span style=&quot;color: rgb(40, 37, 61); font-family: &amp;quot;Recursive Variable&amp;quot;, arial, sans-serif;&quot;&gt;&lt;font style=&quot;font-size: 12px;&quot;&gt;Envoie la requête&lt;/font&gt;&lt;/span&gt;" style="edgeLabel;html=1;align=center;verticalAlign=middle;resizable=0;points=[];" vertex="1" connectable="0" parent="8HuhSmRQcWYRWmU0MKGT-16">
          <mxGeometry x="0.621" y="-4" relative="1" as="geometry">
            <mxPoint x="-65" y="-14" as="offset" />
          </mxGeometry>
        </mxCell>
        <mxCell id="8HuhSmRQcWYRWmU0MKGT-18" style="edgeStyle=orthogonalEdgeStyle;rounded=0;orthogonalLoop=1;jettySize=auto;html=1;curved=0;" edge="1" parent="1" source="8HuhSmRQcWYRWmU0MKGT-6">
          <mxGeometry relative="1" as="geometry">
            <mxPoint x="1008" y="508" as="sourcePoint" />
            <mxPoint x="1253" y="532" as="targetPoint" />
            <Array as="points">
              <mxPoint x="1008" y="532" />
              <mxPoint x="1008" y="532" />
            </Array>
          </mxGeometry>
        </mxCell>
        <mxCell id="8HuhSmRQcWYRWmU0MKGT-19" value="&lt;font style=&quot;font-size: 12px;&quot;&gt;appelle la méthode pour traitement&lt;/font&gt;" style="edgeLabel;html=1;align=center;verticalAlign=middle;resizable=0;points=[];" vertex="1" connectable="0" parent="8HuhSmRQcWYRWmU0MKGT-18">
          <mxGeometry x="0.0655" y="5" relative="1" as="geometry">
            <mxPoint x="-2" y="-5" as="offset" />
          </mxGeometry>
        </mxCell>
        <mxCell id="8HuhSmRQcWYRWmU0MKGT-20" value="" style="endArrow=none;dashed=1;html=1;dashPattern=1 3;strokeWidth=2;rounded=0;exitX=0.001;exitY=0.356;exitDx=0;exitDy=0;fillColor=#ffe6cc;strokeColor=#d79b00;exitPerimeter=0;" edge="1" parent="1">
          <mxGeometry width="50" height="50" relative="1" as="geometry">
            <mxPoint x="451.70999999999987" y="729.7360000000001" as="sourcePoint" />
            <mxPoint x="1854.3" y="729" as="targetPoint" />
            <Array as="points">
              <mxPoint x="1060.3" y="733" />
            </Array>
          </mxGeometry>
        </mxCell>
        <mxCell id="8HuhSmRQcWYRWmU0MKGT-21" value="&lt;font style=&quot;font-size: 12px;&quot;&gt;Données existe&lt;/font&gt;" style="html=1;verticalAlign=bottom;endArrow=open;dashed=1;endSize=8;curved=0;rounded=0;" edge="1" parent="1">
          <mxGeometry x="-0.1304" y="-5" relative="1" as="geometry">
            <mxPoint x="1613" y="640" as="sourcePoint" />
            <mxPoint x="1268" y="640" as="targetPoint" />
            <mxPoint x="1" as="offset" />
          </mxGeometry>
        </mxCell>
        <mxCell id="8HuhSmRQcWYRWmU0MKGT-22" value="&lt;font style=&quot;font-size: 12px;&quot;&gt;Données existe&lt;/font&gt;" style="html=1;verticalAlign=bottom;endArrow=open;dashed=1;endSize=8;curved=0;rounded=0;" edge="1" parent="1" source="8HuhSmRQcWYRWmU0MKGT-8">
          <mxGeometry x="0.0039" relative="1" as="geometry">
            <mxPoint x="1078" y="660" as="sourcePoint" />
            <mxPoint x="1008" y="660" as="targetPoint" />
            <mxPoint as="offset" />
          </mxGeometry>
        </mxCell>
        <mxCell id="8HuhSmRQcWYRWmU0MKGT-23" value="&lt;font style=&quot;font-size: 12px;&quot;&gt;Message d&#39;erreur&lt;/font&gt;" style="html=1;verticalAlign=bottom;endArrow=open;dashed=1;endSize=8;curved=0;rounded=0;" edge="1" parent="1" target="8HuhSmRQcWYRWmU0MKGT-4">
          <mxGeometry relative="1" as="geometry">
            <mxPoint x="988" y="700" as="sourcePoint" />
            <mxPoint x="908" y="700" as="targetPoint" />
            <Array as="points">
              <mxPoint x="888" y="700" />
            </Array>
          </mxGeometry>
        </mxCell>
        <mxCell id="8HuhSmRQcWYRWmU0MKGT-24" value="&lt;font style=&quot;font-size: 12px;&quot;&gt;afficher message d&#39;erreur&lt;/font&gt;" style="html=1;verticalAlign=bottom;endArrow=open;dashed=1;endSize=8;curved=0;rounded=0;" edge="1" parent="1" target="8HuhSmRQcWYRWmU0MKGT-1">
          <mxGeometry x="-0.0012" relative="1" as="geometry">
            <mxPoint x="768" y="720" as="sourcePoint" />
            <mxPoint x="688" y="720" as="targetPoint" />
            <mxPoint as="offset" />
          </mxGeometry>
        </mxCell>
        <mxCell id="8HuhSmRQcWYRWmU0MKGT-25" value="[Identifiant existe déjà]" style="text;strokeColor=none;align=center;fillColor=none;html=1;verticalAlign=middle;whiteSpace=wrap;rounded=0;" vertex="1" parent="1">
          <mxGeometry x="454" y="647" width="80" height="30" as="geometry" />
        </mxCell>
        <mxCell id="8HuhSmRQcWYRWmU0MKGT-26" value="Service Email" style="shape=umlLifeline;perimeter=lifelinePerimeter;whiteSpace=wrap;html=1;container=1;dropTarget=0;collapsible=0;recursiveResize=0;outlineConnect=0;portConstraint=eastwest;newEdgeStyle={&quot;curved&quot;:0,&quot;rounded&quot;:0};fillColor=#f5f5f5;fontColor=#333333;strokeColor=#666666;" vertex="1" parent="1">
          <mxGeometry x="1768" y="240" width="100" height="788" as="geometry" />
        </mxCell>
        <mxCell id="8HuhSmRQcWYRWmU0MKGT-27" value="" style="html=1;points=[[0,0,0,0,5],[0,1,0,0,-5],[1,0,0,0,5],[1,1,0,0,-5]];perimeter=orthogonalPerimeter;outlineConnect=0;targetShapes=umlLifeline;portConstraint=eastwest;newEdgeStyle={&quot;curved&quot;:0,&quot;rounded&quot;:0};" vertex="1" parent="8HuhSmRQcWYRWmU0MKGT-26">
          <mxGeometry x="45" y="616" width="10" height="80" as="geometry" />
        </mxCell>
        <mxCell id="8HuhSmRQcWYRWmU0MKGT-28" value="&lt;font style=&quot;font-size: 12px;&quot;&gt;envoie email avec identifiants&lt;/font&gt;" style="html=1;verticalAlign=bottom;endArrow=block;curved=0;rounded=0;" edge="1" parent="1" target="8HuhSmRQcWYRWmU0MKGT-26">
          <mxGeometry x="-0.1097" y="4" width="80" relative="1" as="geometry">
            <mxPoint x="1268" y="870" as="sourcePoint" />
            <mxPoint x="1338" y="870" as="targetPoint" />
            <Array as="points">
              <mxPoint x="1478" y="870" />
            </Array>
            <mxPoint as="offset" />
          </mxGeometry>
        </mxCell>
        <mxCell id="8HuhSmRQcWYRWmU0MKGT-29" value="" style="html=1;verticalAlign=bottom;endArrow=open;dashed=1;endSize=8;curved=0;rounded=0;" edge="1" parent="1">
          <mxGeometry relative="1" as="geometry">
            <mxPoint x="1808" y="910" as="sourcePoint" />
            <mxPoint x="1268" y="910" as="targetPoint" />
          </mxGeometry>
        </mxCell>
        <mxCell id="8HuhSmRQcWYRWmU0MKGT-30" value="&lt;font style=&quot;font-size: 12px;&quot;&gt;Succès ou échec&lt;/font&gt;" style="edgeLabel;html=1;align=center;verticalAlign=middle;resizable=0;points=[];" vertex="1" connectable="0" parent="8HuhSmRQcWYRWmU0MKGT-29">
          <mxGeometry x="0.2471" y="-2" relative="1" as="geometry">
            <mxPoint x="27" y="-8" as="offset" />
          </mxGeometry>
        </mxCell>
        <mxCell id="8HuhSmRQcWYRWmU0MKGT-31" value="[Nouvel&amp;nbsp;&lt;div&gt;utilisateur]&lt;/div&gt;" style="text;strokeColor=none;align=center;fillColor=none;html=1;verticalAlign=middle;whiteSpace=wrap;rounded=0;" vertex="1" parent="1">
          <mxGeometry x="431" y="743" width="110" height="30" as="geometry" />
        </mxCell>
        <mxCell id="8HuhSmRQcWYRWmU0MKGT-32" value="" style="endArrow=open;endFill=1;endSize=12;html=1;rounded=0;" edge="1" parent="1">
          <mxGeometry width="160" relative="1" as="geometry">
            <mxPoint x="1265" y="824" as="sourcePoint" />
            <mxPoint x="1614.0000000000005" y="824.0000000000002" as="targetPoint" />
          </mxGeometry>
        </mxCell>
        <mxCell id="8HuhSmRQcWYRWmU0MKGT-33" value="&lt;font style=&quot;font-size: 12px;&quot;&gt;Crée l&#39;utilisateur&lt;/font&gt;" style="edgeLabel;html=1;align=center;verticalAlign=middle;resizable=0;points=[];" vertex="1" connectable="0" parent="8HuhSmRQcWYRWmU0MKGT-32">
          <mxGeometry x="0.1488" y="1" relative="1" as="geometry">
            <mxPoint x="-7" y="-9" as="offset" />
          </mxGeometry>
        </mxCell>
        <mxCell id="8HuhSmRQcWYRWmU0MKGT-34" value="&lt;span style=&quot;background-color: rgb(255, 255, 255);&quot;&gt;&lt;font style=&quot;font-size: 12px;&quot;&gt;&amp;nbsp;Génère mot de passe&amp;nbsp;&lt;/font&gt;&lt;/span&gt;" style="text;html=1;align=center;verticalAlign=middle;resizable=0;points=[];autosize=1;strokeColor=none;fillColor=none;" vertex="1" parent="1">
          <mxGeometry x="1200" y="747" width="140" height="26" as="geometry" />
        </mxCell>
        <mxCell id="8HuhSmRQcWYRWmU0MKGT-35" value="alt" style="shape=umlFrame;whiteSpace=wrap;html=1;pointerEvents=0;fillColor=#ffe6cc;strokeColor=#d79b00;" vertex="1" parent="1">
          <mxGeometry x="473" y="943" width="799" height="269" as="geometry" />
        </mxCell>
        <mxCell id="8HuhSmRQcWYRWmU0MKGT-36" value="[Email envoyé avec succès]" style="text;strokeColor=none;align=center;fillColor=none;html=1;verticalAlign=middle;whiteSpace=wrap;rounded=0;" vertex="1" parent="1">
          <mxGeometry x="477" y="985" width="80" height="30" as="geometry" />
        </mxCell>
        <mxCell id="8HuhSmRQcWYRWmU0MKGT-37" value="&lt;br&gt;&lt;div&gt;&lt;br&gt;&lt;/div&gt;&lt;div&gt;&lt;br&gt;&lt;/div&gt;&lt;div&gt;&lt;br&gt;&lt;/div&gt;&lt;div&gt;&lt;br&gt;&lt;/div&gt;&lt;div&gt;&lt;br&gt;&lt;/div&gt;&lt;div&gt;&lt;br&gt;&lt;/div&gt;&lt;div&gt;&lt;br&gt;&lt;/div&gt;&lt;div&gt;&lt;br&gt;&lt;/div&gt;&lt;div&gt;&lt;br&gt;&lt;/div&gt;&lt;div&gt;&lt;br&gt;&lt;/div&gt;&lt;div&gt;&lt;br&gt;&lt;/div&gt;" style="html=1;verticalAlign=bottom;endArrow=open;dashed=1;endSize=8;curved=0;rounded=0;" edge="1" parent="1">
          <mxGeometry x="0.0039" relative="1" as="geometry">
            <mxPoint x="1256" y="980" as="sourcePoint" />
            <mxPoint x="1000" y="980" as="targetPoint" />
            <mxPoint as="offset" />
          </mxGeometry>
        </mxCell>
        <mxCell id="8HuhSmRQcWYRWmU0MKGT-38" value="Succès" style="edgeLabel;html=1;align=center;verticalAlign=middle;resizable=0;points=[];" connectable="0" vertex="1" parent="8HuhSmRQcWYRWmU0MKGT-37">
          <mxGeometry x="0.3162" y="4" relative="1" as="geometry">
            <mxPoint x="20" y="-14" as="offset" />
          </mxGeometry>
        </mxCell>
        <mxCell id="8HuhSmRQcWYRWmU0MKGT-39" value="&lt;font style=&quot;font-size: 12px;&quot;&gt;Succès&lt;/font&gt;" style="html=1;verticalAlign=bottom;endArrow=open;dashed=1;endSize=8;curved=0;rounded=0;" edge="1" parent="1">
          <mxGeometry relative="1" as="geometry">
            <mxPoint x="991" y="999" as="sourcePoint" />
            <mxPoint x="785" y="999" as="targetPoint" />
            <Array as="points">
              <mxPoint x="898" y="999.23" />
            </Array>
          </mxGeometry>
        </mxCell>
        <mxCell id="8HuhSmRQcWYRWmU0MKGT-40" value="&lt;font style=&quot;font-size: 12px;&quot;&gt;afficher message de confirmation d&#39;ajout&lt;/font&gt;" style="html=1;verticalAlign=bottom;endArrow=open;dashed=1;endSize=8;curved=0;rounded=0;" edge="1" parent="1">
          <mxGeometry x="-0.001" relative="1" as="geometry">
            <mxPoint x="772" y="1037" as="sourcePoint" />
            <mxPoint x="541" y="1037" as="targetPoint" />
            <mxPoint as="offset" />
          </mxGeometry>
        </mxCell>
        <mxCell id="8HuhSmRQcWYRWmU0MKGT-41" value="[Echec d&#39;envoi email]" style="text;strokeColor=none;align=center;fillColor=none;html=1;verticalAlign=middle;whiteSpace=wrap;rounded=0;" vertex="1" parent="1">
          <mxGeometry x="479" y="1070" width="80" height="30" as="geometry" />
        </mxCell>
        <mxCell id="8HuhSmRQcWYRWmU0MKGT-42" style="edgeStyle=orthogonalEdgeStyle;rounded=0;orthogonalLoop=1;jettySize=auto;html=1;exitX=0.5;exitY=1;exitDx=0;exitDy=0;" edge="1" parent="1" source="8HuhSmRQcWYRWmU0MKGT-41" target="8HuhSmRQcWYRWmU0MKGT-41">
          <mxGeometry relative="1" as="geometry" />
        </mxCell>
        <mxCell id="8HuhSmRQcWYRWmU0MKGT-43" value="&lt;br&gt;&lt;div&gt;&lt;br&gt;&lt;/div&gt;&lt;div&gt;&lt;br&gt;&lt;/div&gt;&lt;div&gt;&lt;br&gt;&lt;/div&gt;&lt;div&gt;&lt;br&gt;&lt;/div&gt;&lt;div&gt;&lt;br&gt;&lt;/div&gt;&lt;div&gt;&lt;br&gt;&lt;/div&gt;&lt;div&gt;&lt;br&gt;&lt;/div&gt;&lt;div&gt;&lt;br&gt;&lt;/div&gt;&lt;div&gt;&lt;br&gt;&lt;/div&gt;&lt;div&gt;&lt;br&gt;&lt;/div&gt;&lt;div&gt;&lt;br&gt;&lt;/div&gt;" style="html=1;verticalAlign=bottom;endArrow=open;dashed=1;endSize=8;curved=0;rounded=0;" edge="1" parent="1">
          <mxGeometry x="-0.1873" y="13" relative="1" as="geometry">
            <mxPoint x="1251" y="1096" as="sourcePoint" />
            <mxPoint x="1000" y="1096" as="targetPoint" />
            <mxPoint as="offset" />
          </mxGeometry>
        </mxCell>
        <mxCell id="8HuhSmRQcWYRWmU0MKGT-44" value="Succès création mais email échoué" style="edgeLabel;html=1;align=center;verticalAlign=middle;resizable=0;points=[];" connectable="0" vertex="1" parent="8HuhSmRQcWYRWmU0MKGT-43">
          <mxGeometry x="0.3162" y="4" relative="1" as="geometry">
            <mxPoint x="10" y="-24" as="offset" />
          </mxGeometry>
        </mxCell>
        <mxCell id="8HuhSmRQcWYRWmU0MKGT-45" value="&lt;font style=&quot;font-size: 12px;&quot;&gt;Message succès + alerte&lt;/font&gt;" style="html=1;verticalAlign=bottom;endArrow=open;dashed=1;endSize=8;curved=0;rounded=0;" edge="1" parent="1">
          <mxGeometry relative="1" as="geometry">
            <mxPoint x="993" y="1126" as="sourcePoint" />
            <mxPoint x="786" y="1126.23" as="targetPoint" />
            <Array as="points" />
          </mxGeometry>
        </mxCell>
        <mxCell id="8HuhSmRQcWYRWmU0MKGT-46" value="" style="endArrow=none;dashed=1;html=1;dashPattern=1 3;strokeWidth=2;rounded=0;exitX=0.001;exitY=0.356;exitDx=0;exitDy=0;fillColor=#ffe6cc;strokeColor=#d79b00;exitPerimeter=0;entryX=1.008;entryY=0.599;entryDx=0;entryDy=0;entryPerimeter=0;" edge="1" parent="1">
          <mxGeometry width="50" height="50" relative="1" as="geometry">
            <mxPoint x="473" y="1057" as="sourcePoint" />
            <mxPoint x="1278" y="1060.264" as="targetPoint" />
            <Array as="points">
              <mxPoint x="1081.5900000000001" y="1060.264" />
            </Array>
          </mxGeometry>
        </mxCell>
        <mxCell id="8HuhSmRQcWYRWmU0MKGT-47" value="&lt;span style=&quot;font-size: 12px;&quot;&gt;&amp;nbsp;affiche alerte de validation&lt;/span&gt;" style="html=1;verticalAlign=bottom;endArrow=open;dashed=1;endSize=8;curved=0;rounded=0;" edge="1" parent="1">
          <mxGeometry x="-0.001" relative="1" as="geometry">
            <mxPoint x="772" y="389" as="sourcePoint" />
            <mxPoint x="541" y="389" as="targetPoint" />
            <mxPoint as="offset" />
          </mxGeometry>
        </mxCell>
        <mxCell id="8HuhSmRQcWYRWmU0MKGT-48" value="alt" style="shape=umlFrame;whiteSpace=wrap;html=1;pointerEvents=0;fillColor=#ffe6cc;strokeColor=#d79b00;" vertex="1" parent="1">
          <mxGeometry x="441" y="336" width="1424" height="925" as="geometry" />
        </mxCell>
        <mxCell id="8HuhSmRQcWYRWmU0MKGT-49" value="[Champ requis vide ou invalide]" style="text;strokeColor=none;align=center;fillColor=none;html=1;verticalAlign=middle;whiteSpace=wrap;rounded=0;" vertex="1" parent="1">
          <mxGeometry x="1016" y="334" width="180" height="30" as="geometry" />
        </mxCell>
        <mxCell id="8HuhSmRQcWYRWmU0MKGT-50" value="[Tous les champs valides]" style="text;strokeColor=none;align=center;fillColor=none;html=1;verticalAlign=middle;whiteSpace=wrap;rounded=0;" vertex="1" parent="1">
          <mxGeometry x="1006" y="405" width="180" height="30" as="geometry" />
        </mxCell>
        <mxCell id="8HuhSmRQcWYRWmU0MKGT-51" value="" style="endArrow=none;dashed=1;html=1;dashPattern=1 3;strokeWidth=2;rounded=0;fillColor=#ffe6cc;strokeColor=#d79b00;" edge="1" parent="1">
          <mxGeometry width="50" height="50" relative="1" as="geometry">
            <mxPoint x="439" y="410" as="sourcePoint" />
            <mxPoint x="1825.5900000000001" y="406" as="targetPoint" />
            <Array as="points">
              <mxPoint x="1031.5900000000001" y="410" />
            </Array>
          </mxGeometry>
        </mxCell>
        <mxCell id="8HuhSmRQcWYRWmU0MKGT-52" value="&lt;font style=&quot;font-size: 12px;&quot;&gt;afficher message avec alerte&lt;/font&gt;" style="html=1;verticalAlign=bottom;endArrow=open;dashed=1;endSize=8;curved=0;rounded=0;" edge="1" parent="1">
          <mxGeometry x="-0.001" relative="1" as="geometry">
            <mxPoint x="772" y="1155" as="sourcePoint" />
            <mxPoint x="541" y="1155" as="targetPoint" />
            <mxPoint as="offset" />
          </mxGeometry>
        </mxCell>
      </root>
    </mxGraphModel>
  </diagram>
</mxfile>
